<?xml version="1.0" standalone="no"?>
<!DOCTYPE svg PUBLIC "-//W3C//DTD SVG 20010904//EN"
 "http://www.w3.org/TR/2001/REC-SVG-20010904/DTD/svg10.dtd">
<svg version="1.0" xmlns="http://www.w3.org/2000/svg"
 width="200.000000pt" height="200.000000pt" viewBox="0 0 200.000000 200.000000"
 preserveAspectRatio="xMidYMid meet">
<metadata>
Created by potrace 1.11, written by Peter Selinger 2001-2013
</metadata>
<g transform="translate(0.000000,200.000000) scale(0.100000,-0.100000)"
fill="#000000" stroke="none">
<path d="M950 1942 c-21 -9 -586 -614 -638 -683 -50 -66 -106 -182 -129 -269
-24 -88 -24 -290 1 -378 76 -277 294 -488 593 -574 67 -19 101 -23 233 -22
138 1 164 3 243 27 286 87 499 299 573 569 25 88 25 290 1 378 -24 91 -86 215
-138 279 -24 29 -53 66 -64 80 -26 35 -600 572 -629 588 -24 14 -25 14 -46 5z
m256 -472 c256 -65 465 -271 525 -520 18 -76 16 -231 -5 -309 -61 -233 -264
-432 -511 -502 -112 -32 -297 -32 -408 -1 -106 30 -200 79 -289 151 -168 135
-251 303 -252 511 0 116 14 181 64 285 86 178 244 312 441 374 86 27 95 28
235 30 91 1 140 -4 200 -19z"/>
</g>
</svg>
